<svg xmlns="http://www.w3.org/2000/svg" width="126" height="163" fill="currentColor" viewBox="0 0 126 163">
  <path fill="#0F5971" d="M0 134h126v29H0z"/>
  <path fill="#000" fill-rule="evenodd" d="M42.006 60.5H0a62.07 62.07 0 0 0 4.796 23.918 62.466 62.466 0 0 0 13.656 20.276 63.015 63.015 0 0 0 20.439 13.548A63.437 63.437 0 0 0 63 123a63.437 63.437 0 0 0 24.11-4.758 63.015 63.015 0 0 0 20.438-13.548 62.465 62.465 0 0 0 13.656-20.276A62.07 62.07 0 0 0 126 60.5H83.994c-.236 10.117-7.627 18.464-17.309 20.178a20.835 20.835 0 0 1-7.37 0c-9.682-1.714-17.073-10.061-17.31-20.178Z"/>
  <path fill="#000" d="M0 61V0h42v61zm84 0V0h42v61z"/>
</svg>
